# xmcd
#
# Track frame offsets:
#  150
#  19398
#  46446
#  67119
#  101667
#
# Disc length: 2126 seconds
#
# Revision: 0
# Processed by: cddbd v1.5.1PL2 Copyright (c) Steve Scherf et al.
# Submitted via: Collectorz.com_Music_Collector 6.11
#
DISCID=44084c05
DTITLE=Calexico - Amsterdam, Feb 15 2001 [CD2)
DYEAR=1900
DGENRE=
TTITLE0=All The Pretty Horses
TTITLE1=I Started A Joke
TTITLE2=Ballad Of Cable Hogue
TTITLE3=Stray
TTITLE4=Crystal Frontier
EXTD=
EXTT0=
EXTT1=
EXTT2=
EXTT3=
EXTT4=
PLAYORDER=
